<mxfile host="app.diagrams.net" modified="2023-12-07T07:46:52.919Z" agent="Mozilla/5.0 (Windows NT 10.0; Win64; x64) AppleWebKit/537.36 (KHTML, like Gecko) Chrome/119.0.0.0 Safari/537.36" etag="f_PrwUsEl7-2A5eXeMWP" version="22.1.7" type="github">
  <diagram id="prtHgNgQTEPvFCAcTncT" name="Page-1">
    <mxGraphModel dx="775" dy="430" grid="1" gridSize="10" guides="1" tooltips="1" connect="1" arrows="1" fold="1" page="1" pageScale="1" pageWidth="827" pageHeight="1169" math="0" shadow="0">
      <root>
        <mxCell id="0" />
        <mxCell id="1" parent="0" />
        <mxCell id="vsKsFeGfgmMe8g4C2Dkr-11" style="edgeStyle=orthogonalEdgeStyle;rounded=0;orthogonalLoop=1;jettySize=auto;html=1;exitX=0.5;exitY=1;exitDx=0;exitDy=0;" edge="1" parent="1" source="vsKsFeGfgmMe8g4C2Dkr-1">
          <mxGeometry relative="1" as="geometry">
            <mxPoint x="260.135135135135" y="350" as="targetPoint" />
          </mxGeometry>
        </mxCell>
        <mxCell id="vsKsFeGfgmMe8g4C2Dkr-12" value="redirect" style="edgeLabel;html=1;align=center;verticalAlign=middle;resizable=0;points=[];" vertex="1" connectable="0" parent="vsKsFeGfgmMe8g4C2Dkr-11">
          <mxGeometry x="-0.0902" relative="1" as="geometry">
            <mxPoint as="offset" />
          </mxGeometry>
        </mxCell>
        <mxCell id="vsKsFeGfgmMe8g4C2Dkr-1" value="server" style="rounded=0;whiteSpace=wrap;html=1;" vertex="1" parent="1">
          <mxGeometry x="210" y="230" width="100" height="60" as="geometry" />
        </mxCell>
        <mxCell id="vsKsFeGfgmMe8g4C2Dkr-2" value="" style="endArrow=classic;html=1;rounded=0;" edge="1" parent="1">
          <mxGeometry width="50" height="50" relative="1" as="geometry">
            <mxPoint x="120" y="260" as="sourcePoint" />
            <mxPoint x="210" y="260" as="targetPoint" />
          </mxGeometry>
        </mxCell>
        <mxCell id="vsKsFeGfgmMe8g4C2Dkr-3" value="Pay" style="edgeLabel;html=1;align=center;verticalAlign=middle;resizable=0;points=[];" vertex="1" connectable="0" parent="vsKsFeGfgmMe8g4C2Dkr-2">
          <mxGeometry x="-0.1396" relative="1" as="geometry">
            <mxPoint as="offset" />
          </mxGeometry>
        </mxCell>
        <mxCell id="vsKsFeGfgmMe8g4C2Dkr-4" value="" style="endArrow=classic;html=1;rounded=0;exitX=1;exitY=0.5;exitDx=0;exitDy=0;" edge="1" parent="1" source="vsKsFeGfgmMe8g4C2Dkr-1">
          <mxGeometry width="50" height="50" relative="1" as="geometry">
            <mxPoint x="320" y="259.73" as="sourcePoint" />
            <mxPoint x="380" y="259.73" as="targetPoint" />
          </mxGeometry>
        </mxCell>
        <mxCell id="vsKsFeGfgmMe8g4C2Dkr-7" value="POST" style="edgeLabel;html=1;align=center;verticalAlign=middle;resizable=0;points=[];" vertex="1" connectable="0" parent="vsKsFeGfgmMe8g4C2Dkr-4">
          <mxGeometry x="-0.1544" y="1" relative="1" as="geometry">
            <mxPoint as="offset" />
          </mxGeometry>
        </mxCell>
        <mxCell id="vsKsFeGfgmMe8g4C2Dkr-9" style="edgeStyle=orthogonalEdgeStyle;rounded=0;orthogonalLoop=1;jettySize=auto;html=1;exitX=0;exitY=0.75;exitDx=0;exitDy=0;entryX=1;entryY=0.75;entryDx=0;entryDy=0;" edge="1" parent="1" source="vsKsFeGfgmMe8g4C2Dkr-8" target="vsKsFeGfgmMe8g4C2Dkr-1">
          <mxGeometry relative="1" as="geometry" />
        </mxCell>
        <mxCell id="vsKsFeGfgmMe8g4C2Dkr-10" value="link" style="edgeLabel;html=1;align=center;verticalAlign=middle;resizable=0;points=[];" vertex="1" connectable="0" parent="vsKsFeGfgmMe8g4C2Dkr-9">
          <mxGeometry x="-0.0154" y="1" relative="1" as="geometry">
            <mxPoint as="offset" />
          </mxGeometry>
        </mxCell>
        <mxCell id="vsKsFeGfgmMe8g4C2Dkr-8" value="gateway" style="rounded=1;whiteSpace=wrap;html=1;" vertex="1" parent="1">
          <mxGeometry x="380" y="230" width="60" height="60" as="geometry" />
        </mxCell>
        <mxCell id="vsKsFeGfgmMe8g4C2Dkr-15" style="edgeStyle=orthogonalEdgeStyle;rounded=0;orthogonalLoop=1;jettySize=auto;html=1;exitX=0.5;exitY=1;exitDx=0;exitDy=0;" edge="1" parent="1" source="vsKsFeGfgmMe8g4C2Dkr-13">
          <mxGeometry relative="1" as="geometry">
            <mxPoint x="260" y="480" as="targetPoint" />
          </mxGeometry>
        </mxCell>
        <mxCell id="vsKsFeGfgmMe8g4C2Dkr-16" value="redirect" style="edgeLabel;html=1;align=center;verticalAlign=middle;resizable=0;points=[];" vertex="1" connectable="0" parent="vsKsFeGfgmMe8g4C2Dkr-15">
          <mxGeometry x="-0.0617" y="1" relative="1" as="geometry">
            <mxPoint as="offset" />
          </mxGeometry>
        </mxCell>
        <mxCell id="vsKsFeGfgmMe8g4C2Dkr-13" value="gateway page" style="swimlane;whiteSpace=wrap;html=1;" vertex="1" parent="1">
          <mxGeometry x="175" y="350" width="170" height="70" as="geometry" />
        </mxCell>
        <mxCell id="vsKsFeGfgmMe8g4C2Dkr-14" value="Payment Form" style="text;html=1;align=center;verticalAlign=middle;resizable=0;points=[];autosize=1;strokeColor=none;fillColor=none;" vertex="1" parent="1">
          <mxGeometry x="210" y="378" width="100" height="30" as="geometry" />
        </mxCell>
        <mxCell id="vsKsFeGfgmMe8g4C2Dkr-18" style="edgeStyle=orthogonalEdgeStyle;rounded=0;orthogonalLoop=1;jettySize=auto;html=1;entryX=0;entryY=0.5;entryDx=0;entryDy=0;" edge="1" parent="1" source="vsKsFeGfgmMe8g4C2Dkr-17" target="vsKsFeGfgmMe8g4C2Dkr-19">
          <mxGeometry relative="1" as="geometry">
            <mxPoint x="370" y="510" as="targetPoint" />
            <Array as="points" />
          </mxGeometry>
        </mxCell>
        <mxCell id="vsKsFeGfgmMe8g4C2Dkr-20" value="&lt;h6&gt;resNumber&lt;/h6&gt;" style="edgeLabel;html=1;align=center;verticalAlign=middle;resizable=0;points=[];" vertex="1" connectable="0" parent="vsKsFeGfgmMe8g4C2Dkr-18">
          <mxGeometry x="-0.2538" relative="1" as="geometry">
            <mxPoint as="offset" />
          </mxGeometry>
        </mxCell>
        <mxCell id="vsKsFeGfgmMe8g4C2Dkr-21" style="edgeStyle=orthogonalEdgeStyle;rounded=0;orthogonalLoop=1;jettySize=auto;html=1;exitX=0;exitY=0.75;exitDx=0;exitDy=0;entryX=1;entryY=0.75;entryDx=0;entryDy=0;" edge="1" parent="1" source="vsKsFeGfgmMe8g4C2Dkr-19" target="vsKsFeGfgmMe8g4C2Dkr-17">
          <mxGeometry relative="1" as="geometry" />
        </mxCell>
        <mxCell id="vsKsFeGfgmMe8g4C2Dkr-22" value="staus" style="edgeLabel;html=1;align=center;verticalAlign=middle;resizable=0;points=[];" vertex="1" connectable="0" parent="vsKsFeGfgmMe8g4C2Dkr-21">
          <mxGeometry x="-0.0154" relative="1" as="geometry">
            <mxPoint as="offset" />
          </mxGeometry>
        </mxCell>
        <mxCell id="vsKsFeGfgmMe8g4C2Dkr-23" style="edgeStyle=orthogonalEdgeStyle;rounded=0;orthogonalLoop=1;jettySize=auto;html=1;exitX=0;exitY=0.5;exitDx=0;exitDy=0;" edge="1" parent="1" source="vsKsFeGfgmMe8g4C2Dkr-17">
          <mxGeometry relative="1" as="geometry">
            <mxPoint x="120" y="510" as="targetPoint" />
          </mxGeometry>
        </mxCell>
        <mxCell id="vsKsFeGfgmMe8g4C2Dkr-24" value="result" style="edgeLabel;html=1;align=center;verticalAlign=middle;resizable=0;points=[];" vertex="1" connectable="0" parent="vsKsFeGfgmMe8g4C2Dkr-23">
          <mxGeometry x="-0.0564" y="1" relative="1" as="geometry">
            <mxPoint as="offset" />
          </mxGeometry>
        </mxCell>
        <mxCell id="vsKsFeGfgmMe8g4C2Dkr-17" value="server" style="rounded=0;whiteSpace=wrap;html=1;" vertex="1" parent="1">
          <mxGeometry x="210" y="480" width="100" height="60" as="geometry" />
        </mxCell>
        <mxCell id="vsKsFeGfgmMe8g4C2Dkr-19" value="gateway" style="rounded=1;whiteSpace=wrap;html=1;" vertex="1" parent="1">
          <mxGeometry x="380" y="480" width="60" height="60" as="geometry" />
        </mxCell>
      </root>
    </mxGraphModel>
  </diagram>
</mxfile>
